Coordinates
version=1
nRows=32
nColumns=12
inDegrees=yes

Units are S.I. units (second, meters, Newtons, ...)
Angles are in degrees

endheader
time	SC_y	SC_z	SC_x	AC_y	AC_z	AC_x	GH_y	GH_z	GH_yy	EL_x	PS_y
       0.0              -32.64          18.24          73.09          62.91         -12.07        -0.3484         -68.93          -6.79         -148.4          49.45          112.6
  0.002022              -32.64          18.24          73.08          62.91         -12.07        -0.3476          -68.9         -6.782         -148.3          49.45          112.5
  0.004044              -32.64          18.24          73.07          62.91         -12.06        -0.3468         -68.87         -6.773         -148.3          49.46          112.5
  0.006066              -32.63          18.24          73.06          62.91         -12.06         -0.346         -68.84         -6.763         -148.2          49.46          112.5
  0.008088              -32.63          18.25          73.05          62.91         -12.06        -0.3451          -68.8         -6.752         -148.2          49.47          112.5
   0.01011              -32.63          18.25          73.04          62.91         -12.06        -0.3441         -68.76         -6.741         -148.1          49.47          112.5
   0.01213              -32.63          18.25          73.03          62.91         -12.06        -0.3431         -68.72         -6.729         -148.1          49.48          112.5
   0.01415              -32.63          18.25          73.01          62.91         -12.06         -0.342         -68.68         -6.716         -148.0          49.49          112.5
   0.01618              -32.63          18.25           73.0          62.91         -12.05        -0.3409         -68.64         -6.703         -148.0          49.49          112.4
    0.0182              -32.62          18.25          72.98           62.9         -12.05        -0.3396         -68.59         -6.688         -147.9           49.5          112.4
   0.02022              -32.62          18.25          72.97           62.9         -12.05        -0.3383         -68.53         -6.672         -147.8          49.51          112.4
   0.02224              -32.62          18.25          72.95           62.9         -12.05        -0.3368         -68.48         -6.655         -147.8          49.52          112.4
   0.02426              -32.62          18.25          72.93           62.9         -12.04        -0.3353         -68.42         -6.637         -147.7          49.53          112.4
   0.02629              -32.61          18.26          72.91           62.9         -12.04        -0.3336         -68.35         -6.617         -147.6          49.54          112.3
   0.02831              -32.61          18.26          72.89           62.9         -12.04        -0.3317         -68.28         -6.596         -147.5          49.55          112.3
   0.03033              -32.61          18.26          72.86           62.9         -12.03        -0.3298          -68.2         -6.573         -147.4          49.56          112.3
   0.03235              -32.61          18.26          72.83           62.9         -12.03        -0.3276         -68.12         -6.548         -147.3          49.58          112.2
   0.03437               -32.6          18.26          72.81           62.9         -12.02        -0.3253         -68.03         -6.521         -147.2          49.59          112.2
    0.0364               -32.6          18.27          72.77           62.9         -12.02        -0.3227         -67.93         -6.491         -147.1          49.61          112.2
   0.03842              -32.59          18.27          72.74           62.9         -12.01        -0.3199         -67.82         -6.458         -146.9          49.62          112.1
   0.04044              -32.59          18.27           72.7           62.9         -12.01        -0.3169          -67.7         -6.422         -146.8          49.64          112.1
   0.04246              -32.58          18.28          72.66          62.89          -12.0        -0.3135         -67.57         -6.382         -146.6          49.66          112.0
   0.04448              -32.58          18.28          72.61          62.89          -12.0        -0.3097         -67.42         -6.339         -146.4          49.69          112.0
   0.04651              -32.57          18.28          72.56          62.89         -11.99        -0.3056         -67.26          -6.29         -146.2          49.71          111.9
   0.04853              -32.56          18.29           72.5          62.89         -11.98         -0.301         -67.08         -6.236         -146.0          49.74          111.8
   0.05055              -32.56          18.29          72.44          62.89         -11.97        -0.2959         -66.88         -6.176         -145.7          49.77          111.7
   0.05257              -32.55           18.3          72.37          62.88         -11.96        -0.2901         -66.66         -6.109         -145.4          49.81          111.6
   0.05459              -32.54           18.3          72.29          62.88         -11.95        -0.2837          -66.4         -6.033         -145.1          49.85          111.5
   0.05662              -32.52          18.31           72.2          62.88         -11.93        -0.2763         -66.12         -5.948         -144.7          49.89          111.4
   0.05864              -32.51          18.32          72.09          62.88         -11.92         -0.268          -65.8         -5.851         -144.3          49.94          111.3
   0.06066               -32.5          18.33          71.98          62.87          -11.9        -0.2586         -65.43          -5.74         -143.9           50.0          111.1
   0.06268              -32.48          18.34          71.84          62.87         -11.88        -0.2477          -65.0         -5.613         -143.3          50.07          111.0
